<svg
            height="40"
            width="60"
            viewBox="0 30 100 10"
            fill="none"
            xmlns="http://www.w3.org/2000/svg"
            className=" arrow-container-2 m-auto"
          >
            <g id="arrow">
              <path
                id="Polygon1"
                d="M68.5 30.6699C71.8333 32.5944 71.8333 37.4056 68.5 39.3301L31 60.9808C27.6667 62.9053 23.5 60.4996 23.5 56.6506L23.5 13.3494C23.5 9.50036 27.6667 7.09474 31 9.01924L68.5 30.6699Z"
                fill="#fff"
                fill-opacity="0.5"
              />
              <path
                id="Polygon2"
                d="M68.5 30.6699C71.8333 32.5944 71.8333 37.4056 68.5 39.3301L31 60.9808C27.6667 62.9053 23.5 60.4996 23.5 56.6506L23.5 13.3494C23.5 9.50036 27.6667 7.09474 31 9.01924L68.5 30.6699Z"
                fill="#AEAEAE"
                fill-opacity="0.5"
              />
              <path
                id="Polygon3"
                d="M68.5 30.6699C71.8333 32.5944 71.8333 37.4056 68.5 39.3301L31 60.9808C27.6667 62.9053 23.5 60.4996 23.5 56.6506L23.5 13.3494C23.5 9.50036 27.6667 7.09474 31 9.01924L68.5 30.6699Z"
                fill="#fff"
                fill-opacity="0.5"
              />
            </g>
          </svg>